<svg xmlns="http://www.w3.org/2000/svg" width="19.998" height="16.406" viewBox="0 0 19.998 16.406">
  <path id="Union_6" data-name="Union 6" d="M-7084.28-18839.6a1.733,1.733,0,0,0,.1-.449l.592-7.729.582,7.549a.58.58,0,0,1-.151.439.586.586,0,0,1-.431.189Zm-18.134,0a.585.585,0,0,1-.431-.189.58.58,0,0,1-.151-.439l.852-11.088h17.661l-.861,11.178a.588.588,0,0,1-.587.539Zm2.12-5.318-.18,2.342a.584.584,0,0,0,.156.449.578.578,0,0,0,.426.186h2.347a.589.589,0,0,0,.582-.545l.18-2.338a.6.6,0,0,0-.151-.449.621.621,0,0,0-.431-.186h-2.342A.589.589,0,0,0-7100.294-18844.914Zm9.814-4.686-.18,2.342a.59.59,0,0,0,.151.445.6.6,0,0,0,.431.189h2.342a.588.588,0,0,0,.587-.545l.18-2.342a.572.572,0,0,0-.156-.445.584.584,0,0,0-.426-.184h-2.347A.582.582,0,0,0-7090.479-18849.6Zm-4.728,0-.18,2.342a.575.575,0,0,0,.156.445.582.582,0,0,0,.426.189h2.347a.587.587,0,0,0,.582-.545l.18-2.342a.583.583,0,0,0-.151-.445.6.6,0,0,0-.431-.184h-2.347A.582.582,0,0,0-7095.207-18849.6Zm-4.728,0-.18,2.342a.575.575,0,0,0,.156.445.582.582,0,0,0,.426.189h2.347a.584.584,0,0,0,.582-.545l.18-2.342a.585.585,0,0,0-.152-.445.6.6,0,0,0-.43-.184h-2.343A.584.584,0,0,0-7099.935-18849.6Zm.677,6.488.09-1.174H-7098l-.09,1.174Zm9.815-4.686.09-1.174h1.169l-.09,1.174Zm-4.728,0,.09-1.174h1.169l-.09,1.174Zm-4.728,0,.09-1.174h1.169l-.09,1.174Zm-3.156-4.689.227-2.977a.588.588,0,0,1,.587-.539h16.482a.592.592,0,0,1,.431.189.6.6,0,0,1,.156.439l-.222,2.887Z" transform="translate(7102.998 18856.002)" fill="#466ce4"/>
</svg>
