<svg xmlns="http://www.w3.org/2000/svg" width="19.999" height="19.779" viewBox="0 0 19.999 19.779">
  <path id="Union_7" data-name="Union 7" d="M-7100.246-18836.221a2.756,2.756,0,0,1-2.754-2.754v-10.553a2.756,2.756,0,0,1,2.754-2.754h.586l9.938-3.672a.764.764,0,0,1,.979.449.768.768,0,0,1-.45.984l-6.062,2.238h9.5a2.756,2.756,0,0,1,2.754,2.754v10.553a2.756,2.756,0,0,1-2.754,2.754Zm1.216-6.3a2.1,2.1,0,0,0,2.1,2.1,2.1,2.1,0,0,0,2.1-2.1,2.1,2.1,0,0,0-2.1-2.1A2.1,2.1,0,0,0-7099.03-18842.523Zm-1.254-5.514a.766.766,0,0,0,.762.768h13.042a.767.767,0,0,0,.767-.768.766.766,0,0,0-.767-.762h-13.042A.765.765,0,0,0-7100.284-18848.037Z" transform="translate(7103 18856)" fill="#466ce4"/>
</svg>
