<svg xmlns="http://www.w3.org/2000/svg" width="30" height="30" viewBox="0 0 30 30"><defs><style>.a,.c{fill:#322941;}.a{opacity:0.05;}.b{opacity:0.4;}</style></defs><circle class="a" cx="15" cy="15" r="15"/><g class="b" transform="translate(6.788 8.041)"><path class="c" d="M15.911,32.173l-4.595-4.595a.574.574,0,0,0-.978.4v2.3H8.328q-6.4,0-7.853,3.617A8.172,8.172,0,0,0,0,36.885a10.777,10.777,0,0,0,1.14,4.047q.027.063.094.215t.121.269a1.02,1.02,0,0,0,.117.2.307.307,0,0,0,.251.153.262.262,0,0,0,.211-.09.335.335,0,0,0,.076-.224,1.827,1.827,0,0,0-.022-.238A1.856,1.856,0,0,1,1.965,41q-.045-.61-.045-1.1a7.639,7.639,0,0,1,.157-1.624,4.877,4.877,0,0,1,.435-1.243,3.122,3.122,0,0,1,.718-.906,4.213,4.213,0,0,1,.947-.624,5.133,5.133,0,0,1,1.194-.381,11.379,11.379,0,0,1,1.382-.193q.7-.054,1.575-.054h2.01v2.3a.571.571,0,0,0,.978.4l4.595-4.595a.564.564,0,0,0,0-.808Z" transform="translate(0 -27.408)"/></g></svg>