<svg xmlns="http://www.w3.org/2000/svg" width="20" height="19.133" viewBox="0 0 20 19.133">
  <path id="star" d="M19.947,7.228a1.414,1.414,0,0,0-1.238-.879L13.533,5.6,11.218.906A1.414,1.414,0,0,0,10,0,1.414,1.414,0,0,0,8.782.906L6.467,5.6l-5.176.752a1.414,1.414,0,0,0-1.238.879A1.414,1.414,0,0,0,.538,8.666l3.746,3.651L3.4,17.472a1.49,1.49,0,0,0,.261,1.27,1.12,1.12,0,0,0,.875.392,1.806,1.806,0,0,0,.835-.23L10,16.47,14.63,18.9a1.8,1.8,0,0,0,.835.23h0a1.121,1.121,0,0,0,.875-.392,1.49,1.49,0,0,0,.261-1.27l-.884-5.155,3.746-3.651a1.414,1.414,0,0,0,.485-1.438Zm0,0" transform="translate(0 0)" fill="#466ce4"/>
</svg>
