<svg xmlns="http://www.w3.org/2000/svg" width="10.161" height="9.46" viewBox="0 0 10.161 9.46"><defs><style>.a{fill:#ff6978;}</style></defs><g transform="translate(10.161 230.46) rotate(180)"><path class="a" d="M95.4,223.8H93.826v-1.752a1.051,1.051,0,1,0-2.1,0v.983a1.22,1.22,0,0,1-.866,1.172l-.886.273v5.455c0,.014,0,.028,0,.041a1.653,1.653,0,0,0,1.169.484H95.4a1.577,1.577,0,0,0,1.577-1.577v-3.5A1.577,1.577,0,0,0,95.4,223.8Z" transform="translate(-86.818)"/><path class="a" d="M1.577,307.657H.526A.526.526,0,0,1,0,307.132v-5.606A.526.526,0,0,1,.526,301H1.577a.526.526,0,0,1,.526.526v5.606A.526.526,0,0,1,1.577,307.657Z" transform="translate(0 -77.197)"/></g></svg>