<svg xmlns="http://www.w3.org/2000/svg" width="30" height="30" viewBox="0 0 30 30"><defs><style>.a,.b{fill:#322941;}.a{opacity:0.05;}.b{opacity:0.4;}</style></defs><circle class="a" cx="15" cy="15" r="15"/><path class="b" d="M16.039,6.572A.862.862,0,0,0,15.3,5.96l-4.642-.44L8.827,1.038a.842.842,0,0,0-1.573,0L5.42,5.52.777,5.96a.865.865,0,0,0-.735.613.919.919,0,0,0,.249.948L3.8,10.732,2.766,15.487a.912.912,0,0,0,.332.921.823.823,0,0,0,.939.043l4-2.5,4,2.5a.825.825,0,0,0,.94-.043.912.912,0,0,0,.332-.921l-1.035-4.755L15.79,7.521A.918.918,0,0,0,16.039,6.572ZM8.118,13.905" transform="translate(6.928 6.54)"/></svg>