<svg xmlns="http://www.w3.org/2000/svg" width="30" height="30" viewBox="0 0 30 30"><defs><style>.a,.c{fill:#322941;}.a{opacity:0.05;}.b{opacity:0.4;}</style></defs><g transform="translate(-0.25)"><circle class="a" cx="15" cy="15" r="15" transform="translate(0.25)"/><g class="b" transform="translate(7.241 7)"><g transform="translate(0 5.144)"><path class="c" d="M9.8,165.707a3.63,3.63,0,0,0-.627-.5,3.734,3.734,0,0,0-4.653.5L1.13,169.1a3.733,3.733,0,0,0,5.277,5.283l2.8-2.8a.267.267,0,0,0-.189-.456H8.911A4.488,4.488,0,0,1,7.2,170.8a.267.267,0,0,0-.291.059L4.9,172.872a1.6,1.6,0,0,1-2.264-2.264l3.405-3.4a1.6,1.6,0,0,1,2.261,0,1.093,1.093,0,0,0,1.5,0,1.056,1.056,0,0,0,0-1.5Z" transform="translate(-0.039 -164.614)"/></g><g transform="translate(5.921 0)"><path class="c" d="M198.488,1.094a3.733,3.733,0,0,0-5.28,0l-2.8,2.795a.268.268,0,0,0,.195.456h.1a4.48,4.48,0,0,1,1.7.333.267.267,0,0,0,.291-.059l2.008-2.005a1.6,1.6,0,1,1,2.264,2.264l-2.5,2.5-.021.024-.875.869a1.6,1.6,0,0,1-2.261,0,1.093,1.093,0,0,0-1.5,0,1.063,1.063,0,0,0,0,1.5,3.7,3.7,0,0,0,1.067.747c.056.027.112.048.168.072s.115.043.171.064.115.04.171.056l.157.043c.107.027.213.048.323.067a3.712,3.712,0,0,0,.4.037h.2l.16-.019c.059,0,.12-.016.189-.016h.091l.184-.027.085-.016.155-.032h.029a3.733,3.733,0,0,0,1.731-.981l3.395-3.395A3.733,3.733,0,0,0,198.488,1.094Z" transform="translate(-189.502 0)"/></g></g></g></svg>