<svg width="21" height="21" viewBox="0 0 21 21" fill="none" xmlns="http://www.w3.org/2000/svg">
<path d="M18.5 1.625H17.625V0H15.875V1.625H5.25V0H3.375V1.625H2.5C1.125 1.625 0 2.75 0 4.125V18.5C0 19.875 1.125 21 2.5 21H18.5C19.875 21 21 19.875 21 18.5V4.125C21 2.75 19.875 1.625 18.5 1.625ZM2.5 3.375H3.375V5H5.125V3.375H15.75V5H17.5V3.375H18.375C18.75 3.375 19.125 3.75 19.125 4.125V6H1.625V4.125C1.75 3.75 2.125 3.375 2.5 3.375ZM18.5 19.25H2.5C2.125 19.25 1.75 18.875 1.75 18.5V7.875H19.25V18.625C19.25 18.875 18.875 19.25 18.5 19.25Z" fill="black" fill-opacity="0.2"/>
</svg>
