<svg width="377" height="359" viewBox="0 0 377 359" fill="none" xmlns="http://www.w3.org/2000/svg">
<g opacity="0.5">
<path d="M228.321 20.6223L32.0928 62.7258L90.2662 333.85L286.494 291.746L228.321 20.6223Z" fill="#E0E0E0"/>
<g opacity="0.5">
<path opacity="0.5" d="M225.99 25.9176L36.3936 66.5981L92.6006 328.558L282.197 287.877L225.99 25.9176Z" fill="url(#paint0_linear)"/>
</g>
<path d="M223.988 28.3639L39.2188 68.0088L94.184 324.18L278.953 284.536L223.988 28.3639Z" fill="#FAFAFA"/>
<path d="M175.294 27.1952L83.6318 46.8625L88.396 69.0663L180.058 49.399L175.294 27.1952Z" fill="url(#paint1_linear)"/>
<path d="M124.389 15.1615C117.223 16.6672 112.69 23.704 114.266 30.8774C115.842 38.0507 122.924 42.654 130.076 41.1484C137.227 39.6428 141.775 32.6059 140.198 25.4326C138.622 18.2592 131.554 13.6559 124.389 15.1615ZM128.885 35.6763C127.371 36.0296 125.783 35.9338 124.325 35.4011C122.866 34.8685 121.603 33.9231 120.696 32.6854C119.788 31.4477 119.278 29.9738 119.231 28.4515C119.183 26.9292 119.6 25.4275 120.428 24.1377C121.255 22.8479 122.457 21.8286 123.88 21.2094C125.302 20.5903 126.881 20.3996 128.414 20.6614C129.948 20.9233 131.367 21.6259 132.491 22.6797C133.615 23.7336 134.393 25.091 134.725 26.5788C134.955 27.5514 134.986 28.5589 134.817 29.5432C134.647 30.5276 134.281 31.4694 133.738 32.3148C133.195 33.1601 132.487 33.8923 131.654 34.4691C130.822 35.046 129.881 35.4563 128.885 35.6763V35.6763Z" fill="url(#paint2_linear)"/>
<path d="M174.124 26.4503L84.3926 45.7034L88.9467 66.9283L178.678 47.6752L174.124 26.4503Z" fill="#27AE60"/>
<path d="M125.211 15.1578C122.766 15.6827 120.531 16.921 118.789 18.716C117.047 20.511 115.877 22.7822 115.426 25.2424C114.975 27.7025 115.264 30.2412 116.255 32.5373C117.247 34.8335 118.898 36.7839 120.998 38.1421C123.098 39.5003 125.554 40.2052 128.055 40.1677C130.556 40.1301 132.989 39.3519 135.048 37.9313C137.107 36.5107 138.698 34.5116 139.62 32.1867C140.543 29.8619 140.755 27.3157 140.23 24.8702C139.882 23.2462 139.217 21.7068 138.274 20.3398C137.33 18.9729 136.127 17.8051 134.732 16.9032C133.338 16.0013 131.779 15.383 130.145 15.0835C128.512 14.784 126.835 14.8093 125.211 15.1578V15.1578ZM129.395 34.6731C127.984 34.976 126.514 34.8535 125.172 34.321C123.83 33.7886 122.676 32.8702 121.856 31.682C121.036 30.4938 120.587 29.0891 120.566 27.6456C120.544 26.2021 120.951 24.7846 121.735 23.5724C122.519 22.3602 123.645 21.4078 124.97 20.8355C126.296 20.2632 127.761 20.0969 129.181 20.3574C130.601 20.618 131.912 21.2938 132.948 22.2994C133.984 23.3049 134.698 24.5951 135.001 26.0067C135.406 27.8992 135.044 29.8754 133.992 31.5007C132.941 33.1259 131.288 34.267 129.395 34.6731V34.6731Z" fill="#27AE60"/>
<path d="M320.09 54.0801H119.012V331.037H320.09V54.0801Z" fill="#E0E0E0"/>
<g opacity="0.5">
<path opacity="0.5" d="M316.086 58.8823H122.175V326.804H316.086V58.8823Z" fill="url(#paint3_linear)"/>
</g>
<path d="M313.767 60.4033H124.07V323.449H313.767V60.4033Z" fill="white"/>
<path d="M265.711 49.0215H172.127V71.7851H265.711V49.0215Z" fill="url(#paint4_linear)"/>
<path d="M219.551 27.5227C212.219 27.5227 206.272 33.4668 206.272 40.8015C206.272 48.1361 212.219 54.0802 219.551 54.0802C226.884 54.0802 232.83 48.1361 232.83 40.8015C232.83 33.4668 226.884 27.5227 219.551 27.5227ZM219.551 48.4633C217.992 48.4995 216.458 48.081 215.144 47.2614C213.829 46.4417 212.795 45.2581 212.173 43.8617C211.55 42.4652 211.368 40.9193 211.649 39.4213C211.931 37.9232 212.663 36.5411 213.752 35.4513C214.841 34.3615 216.238 33.6135 217.765 33.3028C219.292 32.9922 220.878 33.1329 222.322 33.7071C223.767 34.2813 225.003 35.2628 225.873 36.5265C226.744 37.7901 227.209 39.2784 227.21 40.8015C227.224 42.8032 226.427 44.7292 224.992 46.1582C223.557 47.5873 221.601 48.403 219.551 48.427V48.4633Z" fill="url(#paint5_linear)"/>
<path d="M265.712 49.0215H173.393V70.5204H265.712V49.0215Z" fill="#27AE60"/>
<path d="M219.551 27.5227C216.925 27.5227 214.358 28.2644 212.174 29.654C209.99 31.0436 208.288 33.0187 207.283 35.3296C206.278 37.6404 206.015 40.1832 206.528 42.6363C207.04 45.0895 208.305 47.3429 210.162 49.1115C212.019 50.8801 214.385 52.0846 216.961 52.5726C219.536 53.0605 222.206 52.8101 224.633 51.8529C227.059 50.8957 229.133 49.2748 230.592 47.1951C232.051 45.1154 232.83 42.6704 232.83 40.1691C232.83 36.8151 231.431 33.5984 228.941 31.2268C226.45 28.8551 223.073 27.5227 219.551 27.5227ZM219.551 47.4681C218.037 47.4663 216.557 47.0372 215.298 46.2349C214.039 45.4325 213.058 44.2931 212.479 42.9602C211.9 41.6274 211.749 40.1611 212.044 38.7463C212.339 37.3315 213.068 36.0318 214.138 35.0112C215.208 33.9906 216.572 33.2949 218.057 33.012C219.543 32.729 221.082 32.8715 222.483 33.4214C223.883 33.9714 225.08 34.9041 225.924 36.1018C226.768 37.2995 227.221 38.7086 227.225 40.151C227.224 41.1099 227.025 42.0593 226.639 42.9449C226.253 43.8305 225.688 44.635 224.975 45.3125C224.262 45.9899 223.417 46.5269 222.486 46.8929C221.555 47.2589 220.558 47.4467 219.551 47.4455V47.4681Z" fill="#27AE60"/>
<g opacity="0.5">
<path opacity="0.5" d="M9.09 338.983H7.36328V348.778H9.09V338.983Z" fill="#47E6B1"/>
<path opacity="0.5" d="M13.127 344.746V343.02H3.33152V344.746H13.127Z" fill="#47E6B1"/>
</g>
<g opacity="0.5">
<path opacity="0.5" d="M209.415 0.504395H207.688V10.2999H209.415V0.504395Z" fill="#47E6B1"/>
<path opacity="0.5" d="M213.452 6.26307V4.53638L203.657 4.53638V6.26307L213.452 6.26307Z" fill="#47E6B1"/>
</g>
<path opacity="0.5" d="M354.882 355.129C354.413 354.925 354.035 354.555 353.821 354.091C353.607 353.626 353.571 353.099 353.72 352.61C353.744 352.535 353.759 352.457 353.765 352.379V352.379C353.778 352.155 353.719 351.933 353.597 351.745C353.474 351.557 353.294 351.414 353.083 351.336C352.873 351.258 352.643 351.251 352.428 351.314C352.212 351.377 352.023 351.508 351.888 351.687V351.687C351.841 351.75 351.801 351.818 351.77 351.891C351.566 352.36 351.197 352.737 350.732 352.952C350.268 353.166 349.741 353.202 349.251 353.053C349.176 353.029 349.099 353.014 349.021 353.008V353.008C348.797 352.994 348.574 353.053 348.386 353.176C348.199 353.299 348.055 353.479 347.978 353.689C347.9 353.9 347.892 354.13 347.955 354.345C348.019 354.56 348.15 354.749 348.329 354.885V354.885C348.392 354.932 348.46 354.971 348.532 355.002C349.001 355.206 349.379 355.576 349.593 356.04C349.807 356.505 349.844 357.032 349.694 357.521C349.67 357.596 349.655 357.673 349.649 357.752V357.752C349.636 357.976 349.695 358.198 349.817 358.386C349.94 358.574 350.12 358.717 350.331 358.795C350.541 358.872 350.771 358.88 350.986 358.817C351.202 358.754 351.391 358.623 351.526 358.444V358.444C351.573 358.381 351.613 358.312 351.644 358.24C351.848 357.771 352.217 357.394 352.682 357.179C353.146 356.965 353.673 356.929 354.163 357.078C354.238 357.102 354.315 357.117 354.393 357.123C354.617 357.137 354.84 357.078 355.028 356.955C355.215 356.832 355.359 356.652 355.436 356.442C355.514 356.231 355.522 356.001 355.459 355.786C355.395 355.571 355.265 355.381 355.085 355.246V355.246C355.022 355.199 354.954 355.16 354.882 355.129V355.129Z" fill="#4D8AF0"/>
<path opacity="0.5" d="M62.749 261.545C62.28 261.341 61.9024 260.971 61.6881 260.507C61.4738 260.042 61.4377 259.515 61.5867 259.026C61.6108 258.951 61.626 258.874 61.632 258.795V258.795C61.6455 258.571 61.5865 258.349 61.4637 258.161C61.341 257.973 61.1611 257.83 60.9505 257.752C60.74 257.675 60.5101 257.667 60.2948 257.73C60.0795 257.793 59.8902 257.924 59.7551 258.103V258.103C59.7081 258.166 59.6686 258.235 59.6375 258.307C59.4333 258.776 59.0639 259.154 58.5994 259.368C58.1349 259.582 57.6078 259.618 57.1185 259.469C57.0436 259.445 56.9662 259.43 56.8878 259.424V259.424C56.6638 259.41 56.4415 259.469 56.2536 259.592C56.0657 259.715 55.9224 259.895 55.8448 260.105C55.7671 260.316 55.7594 260.546 55.8226 260.761C55.8858 260.976 56.0167 261.166 56.1959 261.301V261.301C56.2589 261.348 56.3272 261.387 56.3994 261.418C56.8684 261.623 57.246 261.992 57.4603 262.457C57.6746 262.921 57.7107 263.448 57.5617 263.937C57.5376 264.012 57.5224 264.09 57.5164 264.168C57.5029 264.392 57.5619 264.614 57.6847 264.802C57.8074 264.99 57.9873 265.133 58.1979 265.211C58.4084 265.289 58.6384 265.297 58.8537 265.233C59.069 265.17 59.2582 265.039 59.3933 264.86V264.86C59.4403 264.797 59.4798 264.729 59.5109 264.656C59.7151 264.187 60.0846 263.81 60.549 263.596C61.0135 263.381 61.5406 263.345 62.0299 263.494C62.1048 263.518 62.1822 263.533 62.2606 263.539C62.4846 263.553 62.707 263.494 62.8948 263.371C63.0827 263.248 63.226 263.069 63.3036 262.858C63.3813 262.647 63.389 262.418 63.3258 262.202C63.2626 261.987 63.1317 261.798 62.9526 261.663V261.663C62.8896 261.616 62.8212 261.576 62.749 261.545Z" fill="#FDD835"/>
<path opacity="0.5" d="M305.56 31.3799C305.091 31.1758 304.713 30.8063 304.499 30.3418C304.284 29.8773 304.248 29.3502 304.397 28.8609C304.421 28.786 304.437 28.7086 304.443 28.6302C304.456 28.4063 304.397 28.1839 304.274 27.996C304.152 27.8082 303.972 27.6648 303.761 27.5872C303.551 27.5096 303.321 27.5018 303.105 27.565C302.89 27.6283 302.701 27.7592 302.566 27.9383V27.9383C302.519 28.0013 302.479 28.0696 302.448 28.1418C302.244 28.6108 301.874 28.9884 301.41 29.2028C300.945 29.4171 300.418 29.4531 299.929 29.3041C299.854 29.28 299.777 29.2649 299.698 29.2589V29.2589C299.474 29.2454 299.252 29.3044 299.064 29.4271C298.876 29.5498 298.733 29.7298 298.655 29.9403C298.578 30.1509 298.57 30.3808 298.633 30.5961C298.696 30.8114 298.827 31.0006 299.006 31.1357V31.1357C299.069 31.1828 299.138 31.2222 299.21 31.2533C299.679 31.4575 300.057 31.827 300.271 32.2915C300.485 32.756 300.521 33.283 300.372 33.7724C300.348 33.8472 300.333 33.9246 300.327 34.003V34.003C300.313 34.227 300.372 34.4494 300.495 34.6372C300.618 34.8251 300.798 34.9684 301.008 35.0461C301.219 35.1237 301.449 35.1315 301.664 35.0682C301.88 35.005 302.069 34.8741 302.204 34.695V34.695C302.251 34.632 302.29 34.5637 302.321 34.4915C302.526 34.0224 302.895 33.6448 303.36 33.4305C303.824 33.2162 304.351 33.1801 304.84 33.3292C304.915 33.3532 304.993 33.3684 305.071 33.3744C305.295 33.3879 305.517 33.3289 305.705 33.2062C305.893 33.0834 306.037 32.9035 306.114 32.693C306.192 32.4824 306.2 32.2525 306.136 32.0372C306.073 31.8219 305.942 31.6327 305.763 31.4975V31.4975C305.7 31.4505 305.632 31.411 305.56 31.3799V31.3799Z" fill="#FDD835"/>
<path opacity="0.5" d="M373.837 148.928C375.584 148.928 376.999 147.23 376.999 145.135C376.999 143.039 375.584 141.341 373.837 141.341C372.091 141.341 370.676 143.039 370.676 145.135C370.676 147.23 372.091 148.928 373.837 148.928Z" fill="#F55F44"/>
<path opacity="0.5" d="M106.366 347.478C108.462 347.478 110.16 345.779 110.16 343.684C110.16 341.588 108.462 339.89 106.366 339.89C104.271 339.89 102.572 341.588 102.572 343.684C102.572 345.779 104.271 347.478 106.366 347.478Z" fill="#F55F44"/>
<path opacity="0.5" d="M337.795 223.542C339.89 223.542 341.589 221.844 341.589 219.749C341.589 217.653 339.89 215.955 337.795 215.955C335.7 215.955 334.001 217.653 334.001 219.749C334.001 221.844 335.7 223.542 337.795 223.542Z" fill="#F55F44"/>
<path opacity="0.5" d="M40.6045 47.7571C42.6998 47.7571 44.3984 46.3416 44.3984 44.5954C44.3984 42.8493 42.6998 41.4338 40.6045 41.4338C38.5091 41.4338 36.8105 42.8493 36.8105 44.5954C36.8105 46.3416 38.5091 47.7571 40.6045 47.7571Z" fill="#4D8AF0"/>
<path opacity="0.5" d="M3.92967 142.605C6.025 142.605 7.7236 140.907 7.7236 138.812C7.7236 136.716 6.025 135.018 3.92967 135.018C1.83434 135.018 0.135742 136.716 0.135742 138.812C0.135742 140.907 1.83434 142.605 3.92967 142.605Z" fill="#47E6B1"/>
</g>
<defs>
<linearGradient id="paint0_linear" x1="187.397" y1="308.218" x2="131.189" y2="46.2584" gradientUnits="userSpaceOnUse">
<stop stop-color="#808080" stop-opacity="0.25"/>
<stop offset="0.54" stop-color="#808080" stop-opacity="0.12"/>
<stop offset="1" stop-color="#808080" stop-opacity="0.1"/>
</linearGradient>
<linearGradient id="paint1_linear" x1="50427.1" y1="-6566.03" x2="50191.5" y2="-7664.01" gradientUnits="userSpaceOnUse">
<stop stop-color="#808080" stop-opacity="0.25"/>
<stop offset="0.54" stop-color="#808080" stop-opacity="0.12"/>
<stop offset="1" stop-color="#808080" stop-opacity="0.1"/>
</linearGradient>
<linearGradient id="paint2_linear" x1="14907.6" y1="742.347" x2="14588.5" y2="-777.755" gradientUnits="userSpaceOnUse">
<stop stop-color="#808080" stop-opacity="0.25"/>
<stop offset="0.54" stop-color="#808080" stop-opacity="0.12"/>
<stop offset="1" stop-color="#808080" stop-opacity="0.1"/>
</linearGradient>
<linearGradient id="paint3_linear" x1="92501.6" y1="190425" x2="92501.6" y2="34117.1" gradientUnits="userSpaceOnUse">
<stop stop-color="#808080" stop-opacity="0.25"/>
<stop offset="0.54" stop-color="#808080" stop-opacity="0.12"/>
<stop offset="1" stop-color="#808080" stop-opacity="0.1"/>
</linearGradient>
<linearGradient id="paint4_linear" x1="44805.9" y1="3603.1" x2="44805.9" y2="2477.44" gradientUnits="userSpaceOnUse">
<stop stop-color="#808080" stop-opacity="0.25"/>
<stop offset="0.54" stop-color="#808080" stop-opacity="0.12"/>
<stop offset="1" stop-color="#808080" stop-opacity="0.1"/>
</linearGradient>
<linearGradient id="paint5_linear" x1="17916.4" y1="4712" x2="17916.4" y2="3159.98" gradientUnits="userSpaceOnUse">
<stop stop-color="#808080" stop-opacity="0.25"/>
<stop offset="0.54" stop-color="#808080" stop-opacity="0.12"/>
<stop offset="1" stop-color="#808080" stop-opacity="0.1"/>
</linearGradient>
</defs>
</svg>
